<svg width="1792" height="1792" viewBox="0 0 1792 1792" xmlns="http://www.w3.org/2000/svg"><g transform="translate(0 256)"><g transform="scale(1 -1) translate(0 -1280)"><path d="M704 1216v-768q0 -26 -19 -45t-45 -19v-576q0 -26 -19 -45t-45 -19h-512q-26 0 -45 19t-19 45v512l249 873q7 23 31 23h424zM1024 1216v-704h-256v704h256zM1792 320v-512q0 -26 -19 -45t-45 -19h-512q-26 0 -45 19t-19 45v576q-26 0 -45 19t-19 45v768h424q24 0 31 -23z M736 1504v-224h-352v224q0 14 9 23t23 9h288q14 0 23 -9t9 -23zM1408 1504v-224h-352v224q0 14 9 23t23 9h288q14 0 23 -9t9 -23z" /></g></g></svg>