<svg width="1792" height="1792" viewBox="0 0 1792 1792" xmlns="http://www.w3.org/2000/svg"><g transform="translate(128 256)"><g transform="scale(1 -1) translate(0 -1280)"><path d="M768 1280q-130 0 -248.5 -51t-204 -136.5t-136.5 -204t-51 -248.5t51 -248.5t136.5 -204t204 -136.5t248.5 -51t248.5 51t204 136.5t136.5 204t51 248.5t-51 248.5t-136.5 204t-204 136.5t-248.5 51zM1536 640q0 -209 -103 -385.5t-279.5 -279.5t-385.5 -103t-385.5 103 t-279.5 279.5t-103 385.5t103 385.5t279.5 279.5t385.5 103t385.5 -103t279.5 -279.5t103 -385.5z" /></g></g></svg>