<svg width="1792" height="1792" viewBox="0 0 1792 1792" xmlns="http://www.w3.org/2000/svg"><g transform="translate(704 256)"><g transform="scale(1 -1) translate(0 -1280)"><path d="M384 288v-192q0 -40 -28 -68t-68 -28h-192q-40 0 -68 28t-28 68v192q0 40 28 68t68 28h192q40 0 68 -28t28 -68zM384 800v-192q0 -40 -28 -68t-68 -28h-192q-40 0 -68 28t-28 68v192q0 40 28 68t68 28h192q40 0 68 -28t28 -68zM384 1312v-192q0 -40 -28 -68t-68 -28h-192 q-40 0 -68 28t-28 68v192q0 40 28 68t68 28h192q40 0 68 -28t28 -68z" /></g></g></svg>