<svg width="1792" height="1792" viewBox="0 0 1792 1792" xmlns="http://www.w3.org/2000/svg"><g transform="translate(256 256)"><g transform="scale(1 -1) translate(0 -1280)"><path d="M1278 1347v-73q0 -29 -18.5 -61t-42.5 -32q-50 0 -54 -1q-26 -6 -32 -31q-3 -11 -3 -64v-1152q0 -25 -18 -43t-43 -18h-108q-25 0 -43 18t-18 43v1218h-143v-1218q0 -25 -17.5 -43t-43.5 -18h-108q-26 0 -43.5 18t-17.5 43v496q-147 12 -245 59q-126 58 -192 179 q-64 117 -64 259q0 166 88 286q88 118 209 159q111 37 417 37h479q25 0 43 -18t18 -43z" /></g></g></svg>