<?xml version="1.0" standalone="no"?>
<!DOCTYPE svg PUBLIC "-//W3C//DTD SVG 20010904//EN"
 "http://www.w3.org/TR/2001/REC-SVG-20010904/DTD/svg10.dtd">
<svg version="1.0" xmlns="http://www.w3.org/2000/svg"
 width="1400.000000pt" height="1650.000000pt" viewBox="0 0 1400.000000 1650.000000"
 preserveAspectRatio="xMidYMid meet">

<g transform="translate(0.000000,1650.000000) scale(0.100000,-0.100000)"
fill="#000000" stroke="none">
<path d="M3362 16013 l-150 -157 -6 -110 c-21 -415 -13 -1507 14 -1930 45
-702 129 -1285 265 -1836 478 -1935 1571 -3308 3328 -4182 l188 -93 252 127
c1220 617 2123 1428 2745 2464 527 877 815 1868 907 3114 39 544 42 1067 10
2055 -8 242 -15 500 -15 573 l0 132 -3694 0 -3694 0 -150 -157z m7201 -171
c13 -19 19 -1534 8 -1817 -55 -1445 -286 -2486 -761 -3435 -271 -541 -586
-977 -1014 -1406 -463 -462 -955 -810 -1598 -1130 l-176 -88 -94 43 c-141 65
-373 191 -568 307 -625 374 -1156 845 -1574 1394 -217 285 -374 538 -544 880
-374 748 -601 1606 -697 2630 -56 601 -64 1133 -38 2328 l6 302 3523 0 c1938
0 3525 -3 3527 -8z"/>
<path d="M8970 15359 c-131 -80 -247 -239 -287 -393 -20 -74 -33 -85 -33 -27
0 70 -5 74 -62 45 -107 -54 -184 -158 -208 -281 l-12 -62 -52 -3 c-44 -3 -52
-6 -64 -31 -20 -41 7 -117 81 -230 74 -112 293 -334 415 -421 107 -76 238
-143 296 -151 87 -13 119 40 81 131 -11 27 -11 36 -2 39 7 2 41 12 75 21 136
37 228 126 253 243 13 62 6 258 -9 273 -6 6 -26 -11 -52 -46 -23 -31 -44 -56
-45 -56 -2 0 0 28 2 63 9 115 -67 467 -101 467 -17 0 -38 -25 -70 -80 -14 -25
-26 -42 -26 -39 0 3 -20 73 -46 155 -56 184 -74 268 -74 345 0 67 -6 71 -60
38z m4 -196 c10 -49 30 -129 47 -180 75 -237 61 -357 -58 -492 -58 -67 -179
-163 -244 -197 -48 -24 -63 -44 -34 -44 31 0 177 60 229 94 80 54 193 178 223
244 14 31 35 95 47 142 13 47 27 85 31 85 17 0 46 -144 52 -256 7 -148 -7
-198 -77 -268 -49 -49 -100 -74 -174 -86 -68 -11 -25 -30 68 -30 79 0 85 2
137 36 30 20 75 58 101 84 40 41 48 45 54 31 4 -10 1 -42 -5 -71 -10 -44 -21
-62 -66 -105 -66 -62 -118 -86 -217 -101 -63 -9 -85 -8 -139 5 -245 63 -529
387 -529 604 0 80 27 140 91 205 71 71 91 75 77 15 -17 -75 -6 -145 40 -244
47 -102 50 -121 22 -181 -24 -54 -10 -55 41 -4 48 48 51 84 14 189 -48 137
-22 272 82 429 39 59 149 183 163 183 4 0 15 -39 24 -87z"/>
<path d="M5600 15155 c-25 -8 -85 -35 -134 -60 -355 -183 -786 -576 -975 -888
-88 -147 -101 -209 -52 -258 47 -47 101 -41 236 25 283 137 635 434 886 748
130 162 189 277 189 364 0 34 -5 47 -26 63 -31 24 -60 25 -124 6z m30 -100
c46 -55 -86 -256 -339 -518 -119 -122 -155 -145 -131 -83 16 44 12 137 -11
204 l-21 62 25 54 c28 62 79 106 206 181 82 47 226 115 247 115 6 0 17 -7 24
-15z"/>
<path d="M5799 14880 c-169 -264 -206 -310 -387 -494 -204 -207 -438 -382
-669 -499 -57 -29 -103 -55 -103 -59 0 -3 35 -9 78 -12 323 -24 415 -45 577
-129 491 -257 960 -675 2605 -2321 459 -460 822 -816 832 -816 10 0 32 13 50
29 30 27 32 32 20 52 -8 12 -260 310 -561 663 -1065 1249 -1965 2331 -2075
2495 -186 278 -332 725 -349 1066 -2 50 -2 50 -18 25z m-374 -854 c198 -80
303 -163 661 -520 332 -332 766 -797 1614 -1731 731 -804 972 -1077 963 -1086
-11 -11 -253 231 -968 966 -843 866 -1267 1281 -1607 1573 -420 360 -686 532
-955 619 -102 32 -113 38 -113 59 0 30 55 72 165 126 95 47 113 46 240 -6z"/>
<path d="M7985 14527 c-14 -11 -17 -22 -12 -56 8 -62 75 -194 148 -291 86
-115 301 -328 428 -423 114 -86 306 -186 411 -213 57 -15 69 -16 95 -3 40 19
42 46 9 119 -37 83 -44 86 -84 45 -46 -48 -84 -47 -187 5 -228 114 -539 403
-638 594 -42 80 -47 142 -15 171 21 19 21 19 -17 42 -43 26 -109 30 -138 10z"/>
<path d="M7900 14359 c-2 -102 -23 -294 -41 -359 -41 -152 -203 -447 -340
-620 -24 -30 -139 -164 -255 -296 l-212 -241 51 -61 50 -61 246 247 c135 136
314 308 396 381 129 115 429 362 518 426 l28 21 -63 59 c-169 160 -282 309
-336 444 -33 82 -42 94 -42 60z"/>
<path d="M8565 13529 c-244 -81 -485 -235 -869 -555 -135 -112 -419 -362 -423
-373 -2 -3 8 -19 20 -35 l24 -29 139 124 c184 165 410 353 509 424 182 130
440 267 612 325 81 27 131 36 301 56 47 6 58 24 15 24 -16 0 -66 14 -113 31
-47 17 -94 32 -105 34 -11 2 -60 -9 -110 -26z"/>
<path d="M6470 12197 c-118 -132 -327 -362 -465 -511 -137 -148 -267 -289
-289 -313 l-38 -43 27 -36 c15 -19 31 -34 35 -32 8 3 185 184 959 980 l94 98
-19 21 c-10 12 -35 34 -54 49 l-36 28 -214 -241z"/>
<path d="M6500 11867 c-217 -209 -462 -444 -545 -523 l-149 -142 24 -21 c14
-11 28 -20 33 -21 4 0 224 208 490 463 265 254 508 487 540 517 l58 55 -28 26
-28 27 -395 -381z"/>
<path d="M5536 11310 c-32 -29 -37 -38 -32 -64 17 -83 213 -256 291 -256 19 0
94 65 84 73 -2 2 -31 21 -64 43 -63 40 -159 131 -211 198 l-30 39 -38 -33z"/>
<path d="M5172 10754 c-215 -231 -332 -364 -332 -377 0 -27 48 -77 74 -77 19
0 187 156 607 566 l126 123 -44 31 c-24 18 -53 45 -65 61 -12 16 -24 29 -28
29 -3 0 -155 -160 -338 -356z"/>
<path d="M8861 10569 c-14 -31 -83 -89 -108 -89 -16 0 -16 -2 -1 -35 14 -30
27 -31 77 -5 71 36 108 105 76 140 -24 26 -28 25 -44 -11z"/>
<path d="M8976 10506 c-15 -60 -109 -146 -161 -146 -20 0 -19 -8 5 -47 22 -37
35 -40 87 -18 83 35 143 108 143 173 0 22 -7 32 -34 45 -33 15 -34 15 -40 -7z"/>
<path d="M7406 5239 c-587 -62 -1070 -441 -1245 -977 -57 -175 -66 -237 -66
-482 0 -259 13 -349 76 -544 73 -224 173 -390 329 -547 192 -193 426 -311 725
-367 141 -26 464 -23 618 6 162 31 291 73 432 143 264 130 479 344 611 608
106 213 156 437 157 711 1 276 -37 451 -148 675 -76 154 -161 270 -284 387
-306 292 -752 435 -1205 387z m265 -144 c529 -98 920 -517 1050 -1125 31 -141
34 -476 6 -613 -95 -470 -380 -796 -792 -903 -85 -22 -123 -26 -250 -27 -266
-2 -461 55 -676 198 -317 211 -537 579 -610 1020 -8 48 -13 155 -13 265 1 150
5 204 22 287 105 489 406 812 838 897 96 20 322 20 425 1z"/>
<path d="M270 5201 c-64 -7 -80 -15 -80 -41 0 -27 34 -46 105 -60 134 -27 189
-83 215 -215 8 -44 10 -354 8 -1130 -3 -1003 -4 -1073 -21 -1110 -27 -61 -44
-74 -155 -127 -97 -45 -103 -50 -100 -75 l3 -27 820 -1 820 0 47 23 c83 41
225 202 279 317 50 104 59 215 18 215 -6 0 -49 -39 -97 -87 -210 -212 -518
-312 -967 -315 -229 -2 -299 23 -325 113 -6 20 -10 238 -10 531 0 485 1 499
20 518 19 19 33 20 348 20 367 0 406 -5 463 -62 39 -39 55 -75 74 -170 9 -40
22 -83 31 -95 15 -24 58 -31 69 -12 9 14 10 769 1 796 -8 26 -34 37 -52 22 -7
-6 -25 -47 -40 -91 -34 -102 -81 -157 -162 -190 -55 -22 -71 -23 -384 -26
-319 -3 -327 -3 -347 17 -21 21 -21 29 -20 509 0 531 2 545 54 572 48 24 712
21 809 -3 158 -40 199 -86 211 -237 7 -90 24 -130 54 -130 50 0 71 90 78 335
5 159 3 193 -9 205 -12 13 -47 14 -219 8 -185 -6 -1349 -1 -1444 6 -22 1 -65
0 -95 -3z"/>
<path d="M2642 5198 c-7 -7 -12 -24 -12 -39 0 -23 8 -31 48 -50 134 -64 192
-169 234 -424 17 -103 17 -682 0 -890 -7 -82 -28 -348 -47 -590 -40 -499 -49
-549 -113 -613 -26 -26 -57 -44 -98 -56 -74 -23 -94 -40 -94 -82 0 -24 5 -34
20 -39 11 -4 90 -1 175 6 122 9 199 9 359 -1 219 -13 262 -10 271 21 11 35
-18 64 -86 84 -178 52 -238 120 -260 297 -9 73 -3 171 51 808 33 399 63 733
66 743 6 20 37 23 52 5 9 -13 829 -1725 876 -1832 31 -71 58 -86 88 -51 12 14
210 409 440 878 231 468 439 894 464 944 46 93 92 147 119 137 8 -3 18 -20 24
-37 5 -18 36 -406 67 -864 57 -817 58 -833 41 -887 -21 -65 -68 -111 -147
-141 -63 -24 -82 -45 -78 -82 l3 -28 140 5 c200 7 339 6 510 -4 139 -7 152 -7
173 11 20 15 22 22 13 44 -10 28 -31 39 -130 65 -78 21 -143 77 -161 139 -6
22 -40 506 -75 1076 -69 1123 -69 1132 -19 1230 30 60 65 84 167 117 78 26 82
29 85 58 5 51 -15 59 -117 46 -63 -8 -118 -8 -195 0 -99 10 -108 10 -127 -8
-12 -10 -263 -505 -559 -1099 -295 -594 -546 -1091 -557 -1104 -23 -28 -35
-24 -67 28 -19 29 -948 2004 -1011 2148 -19 43 -44 48 -168 34 -71 -8 -128 -8
-187 -1 -113 13 -163 13 -178 -2z"/>
<path d="M9248 5195 c-53 -30 -29 -78 47 -96 157 -36 199 -61 236 -136 l24
-48 0 -1105 0 -1105 -22 -40 c-31 -58 -71 -92 -164 -139 -90 -45 -111 -65 -93
-93 12 -20 -18 -19 494 -15 140 2 310 0 377 -4 110 -6 123 -5 129 10 4 10 2
28 -4 41 -11 24 -16 26 -195 76 -94 27 -148 63 -179 121 -23 43 -23 45 -26
528 -2 267 0 495 3 507 9 37 63 46 261 41 165 -3 182 -5 220 -27 47 -26 27 3
388 -566 136 -214 279 -429 317 -477 114 -143 232 -222 367 -249 73 -14 344
-7 404 11 74 21 56 54 -37 70 -153 27 -265 86 -369 194 -53 55 -241 332 -662
973 l-113 173 61 30 c194 96 342 263 406 457 21 67 25 96 26 203 0 90 -5 143
-18 190 -68 248 -241 395 -552 467 -71 16 -117 18 -444 13 -542 -6 -707 -6
-785 3 -55 5 -76 4 -97 -8z m1077 -139 c162 -35 267 -87 361 -180 108 -108
164 -258 164 -441 0 -285 -124 -464 -376 -542 -50 -15 -94 -18 -299 -18 -194
0 -246 3 -270 15 l-30 15 -3 525 c-1 289 0 539 3 556 14 78 63 96 245 90 74
-3 167 -12 205 -20z"/>
<path d="M11527 5192 c-10 -11 -17 -31 -15 -44 2 -19 17 -28 95 -54 51 -16
110 -44 130 -60 27 -22 141 -194 396 -600 196 -313 371 -595 387 -626 l30 -57
0 -538 c0 -524 0 -538 -21 -580 -25 -52 -76 -84 -169 -108 -81 -21 -110 -39
-110 -69 0 -46 15 -49 217 -38 119 5 278 5 431 -1 256 -10 292 -6 292 31 0 29
-30 50 -106 76 -96 32 -126 49 -162 90 -56 64 -57 72 -57 657 l0 536 30 47
c17 25 168 261 336 524 169 262 325 507 348 543 49 80 120 148 188 183 58 29
70 49 48 82 -18 28 -16 28 -213 13 -110 -8 -188 -8 -307 1 -178 13 -210 8
-221 -35 -10 -39 9 -52 111 -75 109 -25 155 -52 172 -100 12 -35 8 -104 -9
-149 -14 -39 -496 -816 -518 -836 -30 -27 -63 -12 -103 47 -63 97 -514 823
-531 856 -10 19 -18 51 -18 73 0 49 26 80 97 116 63 32 85 51 85 75 0 34 -43
40 -190 27 -128 -11 -348 -8 -545 7 -72 6 -82 4 -98 -14z"/>
<path d="M3575 1588 c-66 -5 -210 -10 -320 -11 l-200 -2 0 -25 c0 -22 7 -27
63 -42 84 -22 109 -40 122 -85 8 -26 10 -180 8 -490 -3 -522 3 -491 -104 -529
-48 -17 -60 -26 -62 -46 l-3 -24 333 -2 c188 -1 365 3 406 9 289 41 455 206
427 424 -14 116 -101 206 -245 254 l-79 27 51 18 c66 23 133 90 148 148 7 23
12 71 12 105 -1 148 -115 248 -312 272 -46 6 -94 10 -105 10 -11 -1 -74 -6
-140 -11z m170 -73 c117 -33 176 -108 183 -236 5 -92 -6 -126 -54 -168 -43
-38 -108 -51 -257 -52 -92 -1 -123 3 -142 15 l-25 16 0 179 c0 188 7 231 43
249 47 24 160 22 252 -3z m140 -584 c108 -48 152 -129 143 -265 -11 -165 -109
-243 -328 -261 -98 -8 -204 6 -232 31 -17 16 -18 33 -16 258 l3 240 25 14 c19
10 67 12 190 9 145 -3 171 -6 215 -26z"/>
<path d="M13127 1589 c-129 -19 -249 -106 -300 -216 -29 -64 -31 -201 -3 -253
47 -90 136 -152 321 -225 271 -107 335 -161 335 -282 -1 -133 -104 -218 -265
-217 -58 1 -92 6 -125 21 -110 50 -202 156 -255 293 -29 77 -36 84 -65 75 -14
-5 -20 -15 -20 -38 0 -35 48 -289 61 -325 11 -27 91 -66 183 -87 77 -19 265
-19 332 -1 209 55 339 236 305 423 -27 145 -108 212 -396 327 -221 89 -278
138 -278 242 0 45 6 63 29 96 57 82 191 118 310 83 118 -34 188 -111 249 -273
25 -67 46 -94 62 -79 8 9 9 398 1 403 -4 3 -21 -5 -37 -17 l-30 -22 -102 33
c-56 18 -131 36 -168 41 -74 9 -66 10 -144 -2z"/>
<path d="M7057 1393 c-156 -269 -245 -431 -367 -668 -125 -243 -154 -284 -231
-331 -32 -20 -59 -42 -59 -49 0 -9 63 -12 258 -11 248 1 257 2 257 21 0 20
-14 25 -108 40 -21 3 -52 19 -70 35 -46 41 -43 82 15 203 26 53 58 108 72 122
l25 25 241 0 c133 0 249 -4 259 -9 24 -14 113 -203 119 -256 6 -60 -15 -90
-84 -121 -38 -17 -54 -29 -54 -43 0 -18 11 -19 288 -17 275 1 287 2 287 20 0
14 -14 24 -51 36 -122 42 -139 61 -219 250 -105 248 -241 553 -335 753 -70
147 -97 197 -111 197 -12 0 -51 -58 -132 -197z m159 -294 c52 -105 93 -198 90
-205 -4 -11 -43 -14 -200 -14 -114 0 -197 4 -201 10 -7 12 197 400 210 400 3
0 48 -86 101 -191z"/>
<path d="M310 1555 c0 -24 3 -26 107 -54 23 -6 51 -23 62 -38 21 -25 21 -37
21 -512 0 -554 6 -514 -89 -559 -31 -15 -56 -34 -56 -42 0 -13 40 -16 270 -19
545 -7 588 -7 628 8 52 18 106 67 128 116 21 45 26 150 8 161 -6 4 -38 -21
-73 -56 -107 -110 -239 -154 -447 -148 -177 5 -159 -54 -159 529 l0 487 27 33
c15 17 51 43 81 56 39 17 52 28 50 41 -3 16 -26 17 -281 18 l-277 2 0 -23z"/>
<path d="M1872 1562 c3 -17 18 -23 97 -43 27 -6 58 -24 78 -44 l33 -33 0 -486
c0 -334 -3 -493 -11 -509 -12 -27 -32 -39 -99 -59 -33 -9 -46 -19 -48 -34 l-3
-22 288 2 c246 1 288 3 288 16 0 9 -27 22 -80 37 -60 16 -87 29 -107 53 l-28
30 0 488 c0 371 3 493 13 512 8 16 28 30 57 39 67 20 95 35 95 51 0 13 -43 15
-288 16 -261 2 -288 0 -285 -14z"/>
<path d="M4765 1572 c-15 -15 -2 -42 23 -48 81 -18 102 -26 125 -50 15 -14 30
-43 34 -63 5 -20 8 -234 8 -476 0 -529 5 -505 -115 -545 -32 -11 -46 -21 -48
-36 -3 -21 -3 -21 283 -21 177 0 288 4 292 10 9 15 -22 34 -68 41 -52 8 -115
40 -129 65 -6 12 -10 108 -10 240 l0 221 105 0 c100 0 106 -1 135 -27 16 -16
105 -135 197 -267 125 -177 177 -243 203 -257 29 -16 57 -19 160 -19 133 0
170 11 170 49 0 23 -19 31 -74 31 -28 0 -55 8 -77 23 -19 12 -114 129 -217
267 l-182 245 33 11 c149 52 225 135 235 259 13 166 -95 297 -280 340 -50 11
-141 14 -431 13 -202 -1 -369 -4 -372 -6z m691 -92 c72 -24 136 -76 166 -134
28 -52 31 -184 6 -231 -49 -91 -113 -116 -315 -123 l-153 -4 0 226 c0 144 4
235 11 247 28 53 158 61 285 19z"/>
<path d="M8245 1572 c-15 -15 -2 -42 23 -48 81 -18 100 -26 125 -52 44 -46 48
-101 45 -564 -3 -374 -5 -427 -20 -454 -15 -28 -36 -40 -125 -75 -13 -5 -23
-17 -23 -27 0 -18 12 -19 285 -19 177 0 288 4 292 10 9 15 -22 34 -68 41 -52
8 -115 40 -129 65 -6 12 -10 108 -10 240 l0 221 104 0 c95 0 107 -2 131 -23
15 -12 104 -132 198 -266 128 -182 181 -249 207 -262 28 -16 57 -19 160 -19
133 0 170 11 170 49 0 23 -19 31 -74 31 -28 0 -55 8 -77 23 -19 12 -113 128
-217 267 l-182 245 33 11 c149 52 225 135 235 259 13 166 -95 297 -280 340
-50 11 -141 14 -431 13 -202 -1 -369 -4 -372 -6z m691 -92 c72 -24 136 -76
166 -134 28 -52 31 -184 6 -231 -49 -91 -113 -116 -315 -123 l-153 -4 0 226
c0 144 4 235 11 247 28 53 158 61 285 19z"/>
<path d="M10004 1569 c-10 -17 7 -27 78 -45 50 -12 81 -26 100 -45 l28 -27 0
-502 0 -501 -24 -24 c-13 -13 -41 -27 -62 -31 -53 -9 -74 -21 -74 -43 0 -18
15 -18 288 -17 246 1 287 3 287 16 0 15 -15 21 -90 40 -67 16 -103 44 -115 90
-7 27 -10 192 -8 509 3 538 -4 498 102 529 47 14 62 23 64 39 3 21 2 21 -283
21 -157 0 -288 -4 -291 -9z"/>
<path d="M11163 1563 c-7 -18 -8 -18 72 -50 117 -48 110 -12 113 -526 2 -243
0 -462 -3 -486 -9 -58 -45 -94 -119 -115 -44 -13 -57 -21 -54 -34 3 -16 37
-17 433 -19 254 -1 446 3 468 8 75 20 164 132 182 232 6 30 4 38 -10 43 -12 5
-28 -5 -53 -34 -52 -58 -132 -108 -216 -134 -59 -19 -95 -23 -206 -23 -144 0
-187 11 -210 54 -6 12 -10 107 -10 236 l0 216 169 -3 170 -3 30 -29 c17 -16
38 -52 47 -80 19 -61 35 -79 57 -70 15 5 17 29 17 224 0 184 -2 219 -15 224
-19 7 -31 -7 -59 -64 -11 -25 -36 -55 -55 -67 -32 -22 -44 -23 -197 -23 l-164
0 0 196 c0 108 4 203 10 214 16 29 66 40 190 40 241 0 335 -42 354 -159 6 -41
31 -71 45 -55 11 12 23 275 13 290 -5 8 -150 11 -500 11 -418 1 -494 -2 -499
-14z"/>
</g>
</svg>
