<svg width="1792" height="1792" viewBox="0 0 1792 1792" xmlns="http://www.w3.org/2000/svg"><g transform="translate(256 256)"><g transform="scale(1 -1) translate(0 -1280)"><path d="M1024 576q0 185 -131.5 316.5t-316.5 131.5t-316.5 -131.5t-131.5 -316.5t131.5 -316.5t316.5 -131.5t316.5 131.5t131.5 316.5zM1152 576q0 -117 -45.5 -223.5t-123 -184t-184 -123t-223.5 -45.5t-223.5 45.5t-184 123t-123 184t-45.5 223.5t45.5 223.5t123 184t184 123 t223.5 45.5t223.5 -45.5t184 -123t123 -184t45.5 -223.5z" /></g></g></svg>