<svg width="1792" height="1792" viewBox="0 0 1792 1792" xmlns="http://www.w3.org/2000/svg"><g transform="translate(256 256)"><g transform="scale(1 -1) translate(0 -1280)"><path d="M1152 960q0 -221 -147.5 -384.5t-364.5 -187.5v-612q0 -14 -9 -23t-23 -9h-64q-14 0 -23 9t-9 23v612q-217 24 -364.5 187.5t-147.5 384.5q0 117 45.5 223.5t123 184t184 123t223.5 45.5t223.5 -45.5t184 -123t123 -184t45.5 -223.5zM576 512q185 0 316.5 131.5 t131.5 316.5t-131.5 316.5t-316.5 131.5t-316.5 -131.5t-131.5 -316.5t131.5 -316.5t316.5 -131.5z" /></g></g></svg>