<svg width="1792" height="1792" viewBox="0 0 1792 1792" xmlns="http://www.w3.org/2000/svg"><g transform="translate(-256 256)"><g transform="scale(1 -1) translate(0 -1280)"><path d="M2304 768h-128v-640h128v-384h-384v128h-896v-128h-384v384h128v128h-384v-128h-384v384h128v640h-128v384h384v-128h896v128h384v-384h-128v-128h384v128h384v-384zM2048 1024v-128h128v128h-128zM1408 1408v-128h128v128h-128zM128 1408v-128h128v128h-128zM256 256 v128h-128v-128h128zM1536 384h-128v-128h128v128zM384 384h896v128h128v640h-128v128h-896v-128h-128v-640h128v-128zM896 -128v128h-128v-128h128zM2176 -128v128h-128v-128h128zM2048 128v640h-128v128h-384v-384h128v-384h-384v128h-384v-128h128v-128h896v128h128z" /></g></g></svg>