<svg width="1792" height="1792" viewBox="0 0 1792 1792" xmlns="http://www.w3.org/2000/svg"><g transform="translate(128 256)"><g transform="scale(1 -1) translate(0 -1280)"><path d="M352 128v-128h-352v128h352zM704 256q26 0 45 -19t19 -45v-256q0 -26 -19 -45t-45 -19h-256q-26 0 -45 19t-19 45v256q0 26 19 45t45 19h256zM864 640v-128h-864v128h864zM224 1152v-128h-224v128h224zM1536 128v-128h-736v128h736zM576 1280q26 0 45 -19t19 -45v-256 q0 -26 -19 -45t-45 -19h-256q-26 0 -45 19t-19 45v256q0 26 19 45t45 19h256zM1216 768q26 0 45 -19t19 -45v-256q0 -26 -19 -45t-45 -19h-256q-26 0 -45 19t-19 45v256q0 26 19 45t45 19h256zM1536 640v-128h-224v128h224zM1536 1152v-128h-864v128h864z" /></g></g></svg>